<svg xmlns="http://www.w3.org/2000/svg" xmlns:xlink="http://www.w3.org/1999/xlink" width="500" zoomAndPan="magnify" viewBox="0 0 375 374.999991" height="500" preserveAspectRatio="xMidYMid meet" version="1.0"><defs><g/><clipPath id="b290a0e921"><path d="M 94 236 L 97 236 L 97 237.847656 L 94 237.847656 Z M 94 236 " clip-rule="nonzero"/></clipPath><clipPath id="bf8252e36c"><path d="M 76 225.097656 L 310 225.097656 L 310 237.847656 L 76 237.847656 Z M 76 225.097656 " clip-rule="nonzero"/></clipPath><clipPath id="9145b576cf"><path d="M 116 225.097656 L 118 225.097656 L 118 226 L 116 226 Z M 116 225.097656 " clip-rule="nonzero"/></clipPath><clipPath id="7ffb51a5db"><path d="M 112 225.097656 L 113 225.097656 L 113 226 L 112 226 Z M 112 225.097656 " clip-rule="nonzero"/></clipPath><clipPath id="613af991a8"><path d="M 120 225.097656 L 122 225.097656 L 122 226 L 120 226 Z M 120 225.097656 " clip-rule="nonzero"/></clipPath></defs><rect x="-37.5" width="450" fill="#ffffff" y="-37.499999" height="449.999989" fill-opacity="1"/><rect x="-37.5" width="450" fill="#fdfbf5" y="-37.499999" height="449.999989" fill-opacity="1"/><g clip-path="url(#b290a0e921)"><path fill="#ff5757" d="M 96.792969 236.820312 C 96.902344 236.984375 96.902344 237.199219 96.683594 237.46875 C 96.523438 237.628906 96.308594 237.734375 96.09375 237.84375 C 95.554688 238.058594 95.339844 237.628906 95.070312 237.414062 C 95.019531 237.359375 94.910156 237.304688 94.855469 237.304688 C 95.449219 236.820312 96.09375 236.660156 96.792969 236.820312 Z M 96.792969 236.820312 " fill-opacity="1" fill-rule="nonzero"/></g><g clip-path="url(#bf8252e36c)"><path fill="#ff5757" d="M 77.054688 229.453125 C 76.839844 229.023438 76.894531 228.59375 77.484375 228.808594 C 78.183594 229.023438 78.722656 228.753906 79.421875 228.539062 C 80.929688 228.003906 82.542969 227.304688 84.101562 227.304688 C 85.769531 227.304688 87.003906 226.441406 88.457031 226.171875 C 90.179688 225.851562 92.058594 225.691406 93.671875 226.121094 C 95.339844 226.550781 97.007812 225.796875 98.40625 226.390625 C 100.179688 227.140625 101.957031 226.65625 103.621094 226.496094 C 105.183594 226.335938 106.6875 227.304688 108.300781 226.335938 C 108.785156 226.011719 109.96875 227.035156 110.828125 227.140625 C 112.175781 227.304688 113.570312 227.410156 114.863281 227.140625 C 116.476562 226.765625 118.035156 226.871094 119.703125 226.980469 C 123.898438 227.195312 128.09375 227.304688 132.289062 227.355469 C 134.546875 227.410156 136.75 227.140625 139.011719 227.25 C 144.171875 227.570312 149.335938 227.410156 154.445312 227.464844 C 158.960938 226.980469 163.480469 227.519531 167.996094 227.734375 C 171.171875 227.894531 174.34375 227.304688 177.460938 228.378906 C 178.539062 228.054688 179.558594 228.109375 180.6875 228.109375 C 185.796875 228.269531 190.960938 228.324219 196.070312 228.378906 C 198.222656 228.378906 200.371094 228.164062 202.46875 228.808594 C 203.761719 229.238281 205.105469 229.132812 206.449219 228.648438 C 207.902344 228.109375 209.355469 228.269531 210.699219 229.132812 C 211.074219 229.238281 211.503906 229.453125 211.882812 229.347656 C 215.378906 228.484375 218.875 228.808594 222.367188 229.347656 C 223.015625 229.453125 223.875 229.722656 224.359375 229.453125 C 225.863281 228.648438 227.261719 229.347656 228.660156 229.347656 C 230.167969 229.347656 231.617188 229.183594 233.125 229.5625 C 233.878906 229.777344 234.738281 229.832031 235.542969 229.722656 C 238.234375 229.453125 240.921875 229.5625 243.613281 229.722656 C 247.269531 229.882812 250.925781 229.667969 254.582031 230.046875 C 259.421875 230.582031 264.316406 230.691406 269.15625 230.691406 C 279.320312 230.691406 289.433594 231.714844 299.597656 232.144531 C 300.671875 232.195312 302.015625 232.089844 302.769531 232.628906 C 304.492188 233.917969 306.480469 233.648438 309.117188 234.292969 C 296.640625 234.5625 285.074219 235.691406 273.40625 235.15625 C 268.027344 234.886719 262.597656 235.316406 257.21875 235.476562 C 255.175781 235.53125 253.128906 235.855469 251.140625 235.746094 C 246.410156 235.585938 241.730469 235.046875 236.996094 235.855469 C 235.976562 236.015625 234.792969 235.960938 233.769531 235.746094 C 232.265625 235.476562 230.757812 235.585938 229.304688 235.855469 C 227.640625 236.230469 226.1875 234.726562 224.519531 235.585938 C 221.5625 235.207031 218.605469 236.121094 215.644531 235.261719 C 211.398438 235.207031 207.148438 236.390625 202.847656 235.53125 C 201.394531 236.230469 199.890625 235.421875 198.492188 235.53125 C 196.929688 235.640625 195.371094 235.800781 193.757812 235.855469 C 191.554688 235.90625 189.507812 235.316406 187.359375 235.261719 C 184.347656 235.15625 181.386719 236.769531 178.324219 235.371094 C 176.332031 236.230469 174.34375 235.421875 172.355469 235.316406 C 171.277344 235.261719 170.039062 235.101562 169.179688 235.585938 C 167.621094 236.445312 166.113281 236.070312 164.554688 235.90625 C 164.019531 235.855469 163.425781 235.421875 162.996094 235.585938 C 160.414062 236.554688 157.996094 235.316406 155.464844 235.261719 C 152.722656 236.070312 149.980469 236.390625 147.183594 235.371094 C 144.980469 235.046875 142.773438 235.800781 140.570312 235.371094 C 139.976562 235.261719 139.277344 235.640625 138.632812 235.800781 C 137.988281 235.90625 137.289062 236.175781 136.644531 236.070312 C 134.707031 235.691406 132.878906 236.339844 130.996094 236.285156 C 129.167969 236.230469 127.339844 235.960938 125.457031 236.121094 C 123.738281 236.285156 121.90625 236.605469 120.292969 236.445312 C 118.414062 236.285156 116.476562 236.554688 114.648438 236.285156 C 111.796875 235.855469 109 235.746094 106.152344 236.121094 C 103.246094 236.445312 100.179688 235.476562 97.382812 237.089844 C 97.167969 236.984375 96.953125 236.929688 96.738281 236.875 C 96.683594 236.714844 96.523438 236.605469 96.417969 236.554688 C 96.09375 236.390625 95.664062 236.390625 95.285156 236.390625 C 95.070312 236.390625 94.804688 236.554688 94.640625 236.714844 C 94.265625 237.144531 94.535156 237.253906 94.804688 237.359375 C 94.695312 237.46875 94.589844 237.519531 94.480469 237.628906 C 94.320312 237.789062 93.671875 237.519531 93.40625 237.304688 C 92.867188 236.820312 92.4375 236.554688 91.628906 236.660156 C 89.910156 236.820312 88.242188 236.660156 86.519531 237.089844 C 84.101562 237.683594 81.734375 236.984375 79.367188 236.285156 C 78.667969 236.070312 78.078125 235.585938 78.238281 234.832031 C 78.667969 232.949219 76.625 233.378906 76.085938 232.410156 C 76.839844 231.445312 77.753906 230.691406 77.054688 229.453125 Z M 206.558594 233.488281 C 206.71875 233.378906 206.828125 233.21875 206.988281 233.109375 C 206.828125 233.21875 206.71875 233.378906 206.558594 233.488281 Z M 148.691406 232.628906 C 148.90625 232.734375 149.121094 232.84375 149.28125 232.949219 C 149.121094 232.84375 148.90625 232.734375 148.691406 232.628906 Z M 183 233.003906 C 182.519531 232.949219 182.035156 232.949219 181.496094 232.894531 C 182.085938 232.949219 182.519531 233.003906 183 233.003906 Z M 191.929688 233.378906 C 192.089844 233.273438 192.253906 233.109375 192.359375 233.058594 C 192.199219 233.109375 192.035156 233.273438 191.929688 233.378906 Z M 191.929688 233.378906 " fill-opacity="1" fill-rule="nonzero"/></g><g clip-path="url(#9145b576cf)"><path fill="#ff5757" d="M 117.390625 225.527344 C 117.066406 225.582031 116.691406 225.527344 116.316406 225.527344 C 116.316406 225.367188 116.316406 225.207031 116.367188 225.207031 C 116.746094 225.152344 117.066406 225.097656 117.445312 225.152344 C 117.765625 225.207031 117.765625 225.421875 117.390625 225.527344 Z M 117.390625 225.527344 " fill-opacity="1" fill-rule="nonzero"/></g><g clip-path="url(#7ffb51a5db)"><path fill="#ff5757" d="M 112.175781 225.207031 C 112.28125 225.152344 112.390625 225.152344 112.496094 225.097656 C 112.605469 225.097656 112.710938 225.152344 112.820312 225.152344 C 112.65625 225.207031 112.550781 225.3125 112.390625 225.3125 C 112.335938 225.367188 112.28125 225.257812 112.175781 225.207031 Z M 112.175781 225.207031 " fill-opacity="1" fill-rule="nonzero"/></g><g clip-path="url(#613af991a8)"><path fill="#ff5757" d="M 120.832031 225.257812 C 120.941406 225.207031 121.046875 225.097656 121.101562 225.097656 C 121.316406 225.097656 121.585938 225.152344 121.800781 225.152344 C 121.800781 225.207031 121.746094 225.3125 121.746094 225.3125 C 121.425781 225.3125 121.15625 225.257812 120.832031 225.257812 Z M 120.832031 225.257812 " fill-opacity="1" fill-rule="nonzero"/></g><g fill="#000000" fill-opacity="1"><g transform="translate(13.085818, 208.740176)"><g><path d="M 10.4375 -9.28125 C 10.144531 -8.226562 9.914062 -7.296875 9.75 -6.484375 C 9.582031 -5.679688 9.5 -5.085938 9.5 -4.703125 C 9.5 -2.910156 11.203125 -2.015625 14.609375 -2.015625 L 14.109375 0 L -0.765625 0 L -0.265625 -1.796875 C 1.160156 -1.796875 2.320312 -2.21875 3.21875 -3.0625 C 4.125 -3.914062 4.828125 -5.269531 5.328125 -7.125 L 10.625 -26.890625 C 11.007812 -28.316406 11.203125 -29.4375 11.203125 -30.25 C 11.203125 -30.695312 11.125 -31.066406 10.96875 -31.359375 C 10.820312 -31.660156 10.566406 -31.910156 10.203125 -32.109375 C 9.847656 -32.304688 9.375 -32.445312 8.78125 -32.53125 C 8.1875 -32.625 7.441406 -32.6875 6.546875 -32.71875 L 7.03125 -34.5 L 19.5 -34.5 C 23.351562 -34.5 26.351562 -33.816406 28.5 -32.453125 C 30.65625 -31.097656 31.734375 -29.210938 31.734375 -26.796875 C 31.734375 -25.242188 31.328125 -23.8125 30.515625 -22.5 C 29.710938 -21.1875 28.59375 -20.050781 27.15625 -19.09375 C 25.71875 -18.132812 24.003906 -17.382812 22.015625 -16.84375 C 20.035156 -16.3125 17.878906 -16.046875 15.546875 -16.046875 L 12.328125 -16.046875 Z M 12.90625 -18.328125 L 15.109375 -18.328125 C 16.804688 -18.328125 18.363281 -18.539062 19.78125 -18.96875 C 21.195312 -19.40625 22.421875 -20.007812 23.453125 -20.78125 C 24.484375 -21.5625 25.289062 -22.484375 25.875 -23.546875 C 26.457031 -24.609375 26.75 -25.78125 26.75 -27.0625 C 26.75 -30.675781 24.359375 -32.484375 19.578125 -32.484375 C 18.984375 -32.484375 18.484375 -32.429688 18.078125 -32.328125 C 17.679688 -32.222656 17.335938 -32.035156 17.046875 -31.765625 C 16.765625 -31.503906 16.519531 -31.140625 16.3125 -30.671875 C 16.101562 -30.210938 15.910156 -29.625 15.734375 -28.90625 Z M 12.90625 -18.328125 "/></g></g></g><g fill="#000000" fill-opacity="1"><g transform="translate(51.718447, 208.740176)"><g><path d="M 22.625 -34.953125 C 24.539062 -34.953125 26.265625 -34.625 27.796875 -33.96875 C 29.335938 -33.3125 30.65625 -32.378906 31.75 -31.171875 C 32.84375 -29.960938 33.679688 -28.5 34.265625 -26.78125 C 34.847656 -25.0625 35.140625 -23.140625 35.140625 -21.015625 C 35.140625 -18.148438 34.625 -15.414062 33.59375 -12.8125 C 32.5625 -10.21875 31.160156 -7.929688 29.390625 -5.953125 C 27.628906 -3.984375 25.59375 -2.421875 23.28125 -1.265625 C 20.96875 -0.117188 18.523438 0.453125 15.953125 0.453125 C 14.035156 0.453125 12.300781 0.117188 10.75 -0.546875 C 9.195312 -1.222656 7.867188 -2.175781 6.765625 -3.40625 C 5.660156 -4.632812 4.804688 -6.101562 4.203125 -7.8125 C 3.609375 -9.53125 3.3125 -11.453125 3.3125 -13.578125 C 3.3125 -16.441406 3.832031 -19.164062 4.875 -21.75 C 5.925781 -24.332031 7.332031 -26.601562 9.09375 -28.5625 C 10.851562 -30.519531 12.90625 -32.070312 15.25 -33.21875 C 17.601562 -34.375 20.0625 -34.953125 22.625 -34.953125 Z M 22.625 -32.625 C 20.6875 -32.625 18.875 -32.128906 17.1875 -31.140625 C 15.5 -30.160156 14.023438 -28.800781 12.765625 -27.0625 C 11.515625 -25.332031 10.53125 -23.300781 9.8125 -20.96875 C 9.09375 -18.644531 8.734375 -16.132812 8.734375 -13.4375 C 8.734375 -9.613281 9.398438 -6.742188 10.734375 -4.828125 C 12.066406 -2.921875 14.015625 -1.96875 16.578125 -1.96875 C 18.460938 -1.96875 20.203125 -2.472656 21.796875 -3.484375 C 23.398438 -4.503906 24.789062 -5.910156 25.96875 -7.703125 C 27.144531 -9.492188 28.0625 -11.628906 28.71875 -14.109375 C 29.375 -16.585938 29.703125 -19.296875 29.703125 -22.234375 C 29.703125 -25.816406 29.128906 -28.441406 27.984375 -30.109375 C 26.835938 -31.785156 25.050781 -32.625 22.625 -32.625 Z M 22.625 -32.625 "/></g></g></g><g fill="#000000" fill-opacity="1"><g transform="translate(97.208143, 208.740176)"><g><path d="M 10.4375 -9.28125 C 10.144531 -8.226562 9.914062 -7.296875 9.75 -6.484375 C 9.582031 -5.679688 9.5 -5.085938 9.5 -4.703125 C 9.5 -2.910156 11.203125 -2.015625 14.609375 -2.015625 L 14.109375 0 L -0.765625 0 L -0.265625 -1.796875 C 1.160156 -1.796875 2.320312 -2.21875 3.21875 -3.0625 C 4.125 -3.914062 4.828125 -5.269531 5.328125 -7.125 L 10.625 -26.890625 C 11.007812 -28.316406 11.203125 -29.4375 11.203125 -30.25 C 11.203125 -30.695312 11.125 -31.066406 10.96875 -31.359375 C 10.820312 -31.660156 10.566406 -31.910156 10.203125 -32.109375 C 9.847656 -32.304688 9.375 -32.445312 8.78125 -32.53125 C 8.1875 -32.625 7.441406 -32.6875 6.546875 -32.71875 L 7.03125 -34.5 L 19.5 -34.5 C 23.082031 -34.5 25.90625 -33.816406 27.96875 -32.453125 C 30.03125 -31.097656 31.0625 -29.210938 31.0625 -26.796875 C 31.0625 -25.566406 30.828125 -24.441406 30.359375 -23.421875 C 29.898438 -22.410156 29.234375 -21.503906 28.359375 -20.703125 C 27.492188 -19.898438 26.457031 -19.210938 25.25 -18.640625 C 24.039062 -18.078125 22.703125 -17.644531 21.234375 -17.34375 L 24.5625 -9.140625 C 25.1875 -7.617188 25.742188 -6.378906 26.234375 -5.421875 C 26.734375 -4.460938 27.25 -3.710938 27.78125 -3.171875 C 28.320312 -2.640625 28.925781 -2.273438 29.59375 -2.078125 C 30.269531 -1.890625 31.097656 -1.796875 32.078125 -1.796875 L 31.59375 0 L 23.078125 0 L 16.484375 -16.796875 L 12.546875 -16.796875 Z M 13.125 -19.09375 L 15.328125 -19.09375 C 16.878906 -19.09375 18.316406 -19.269531 19.640625 -19.625 C 20.972656 -19.988281 22.109375 -20.503906 23.046875 -21.171875 C 23.992188 -21.847656 24.734375 -22.675781 25.265625 -23.65625 C 25.804688 -24.644531 26.078125 -25.78125 26.078125 -27.0625 C 26.078125 -28.851562 25.523438 -30.203125 24.421875 -31.109375 C 23.316406 -32.023438 21.703125 -32.484375 19.578125 -32.484375 C 18.984375 -32.484375 18.484375 -32.429688 18.078125 -32.328125 C 17.679688 -32.222656 17.335938 -32.035156 17.046875 -31.765625 C 16.765625 -31.503906 16.519531 -31.140625 16.3125 -30.671875 C 16.101562 -30.210938 15.910156 -29.625 15.734375 -28.90625 Z M 13.125 -19.09375 "/></g></g></g><g fill="#000000" fill-opacity="1"><g transform="translate(140.143245, 208.740176)"><g><path d="M 18.234375 -7.53125 C 18.054688 -6.84375 17.890625 -6.25 17.734375 -5.75 C 17.585938 -5.257812 17.515625 -4.804688 17.515625 -4.390625 C 17.515625 -3.429688 17.90625 -2.757812 18.6875 -2.375 C 19.46875 -1.988281 20.796875 -1.796875 22.671875 -1.796875 L 22.140625 0 L 6.546875 0 L 7.03125 -1.796875 C 7.925781 -1.796875 8.703125 -1.851562 9.359375 -1.96875 C 10.023438 -2.09375 10.617188 -2.332031 11.140625 -2.6875 C 11.660156 -3.039062 12.109375 -3.566406 12.484375 -4.265625 C 12.859375 -4.972656 13.207031 -5.910156 13.53125 -7.078125 L 19 -27.515625 C 19.269531 -28.585938 19.40625 -29.484375 19.40625 -30.203125 C 19.40625 -31.066406 19.207031 -31.6875 18.8125 -32.0625 C 18.425781 -32.4375 17.800781 -32.625 16.9375 -32.625 C 14.3125 -32.625 12.035156 -31.953125 10.109375 -30.609375 C 8.179688 -29.265625 6.570312 -27.378906 5.28125 -24.953125 L 3.5 -24.953125 L 7.75 -34.5 L 37.6875 -34.5 L 36.796875 -24.953125 L 35.09375 -24.953125 C 35.09375 -27.828125 34.5625 -29.820312 33.5 -30.9375 C 32.4375 -32.0625 30.859375 -32.625 28.765625 -32.625 C 28.023438 -32.625 27.390625 -32.546875 26.859375 -32.390625 C 26.335938 -32.242188 25.875 -31.976562 25.46875 -31.59375 C 25.070312 -31.207031 24.71875 -30.671875 24.40625 -29.984375 C 24.09375 -29.296875 23.800781 -28.410156 23.53125 -27.328125 Z M 18.234375 -7.53125 "/></g></g></g><g fill="#000000" fill-opacity="1"><g transform="translate(183.840248, 208.740176)"><g><path d="M -0.671875 -1.796875 C 0.316406 -1.796875 1.128906 -1.867188 1.765625 -2.015625 C 2.410156 -2.160156 2.945312 -2.4375 3.375 -2.84375 C 3.8125 -3.25 4.175781 -3.785156 4.46875 -4.453125 C 4.769531 -5.128906 5.054688 -6.003906 5.328125 -7.078125 L 10.53125 -26.84375 C 10.738281 -27.613281 10.894531 -28.28125 11 -28.84375 C 11.101562 -29.414062 11.15625 -29.914062 11.15625 -30.34375 C 11.15625 -31.320312 10.8125 -31.960938 10.125 -32.265625 C 9.4375 -32.566406 8.285156 -32.71875 6.671875 -32.71875 L 7.171875 -34.5 L 31.640625 -34.5 L 31.640625 -25.453125 L 29.9375 -25.453125 C 29.550781 -26.890625 29.117188 -28.0625 28.640625 -28.96875 C 28.160156 -29.882812 27.613281 -30.601562 27 -31.125 C 26.382812 -31.644531 25.695312 -32.007812 24.9375 -32.21875 C 24.175781 -32.425781 23.332031 -32.53125 22.40625 -32.53125 L 16.578125 -32.53125 L 13.078125 -19.21875 L 16.125 -19.21875 C 16.9375 -19.21875 17.625 -19.289062 18.1875 -19.4375 C 18.757812 -19.59375 19.273438 -19.859375 19.734375 -20.234375 C 20.203125 -20.609375 20.632812 -21.125 21.03125 -21.78125 C 21.4375 -22.4375 21.878906 -23.285156 22.359375 -24.328125 L 24.015625 -24.328125 L 20.875 -10.171875 L 19.09375 -10.171875 C 19.175781 -11.242188 19.21875 -12.171875 19.21875 -12.953125 C 19.21875 -14.441406 18.992188 -15.53125 18.546875 -16.21875 C 18.097656 -16.90625 17.28125 -17.25 16.09375 -17.25 L 12.5 -17.25 L 9.953125 -7.625 C 9.679688 -6.632812 9.546875 -5.796875 9.546875 -5.109375 C 9.546875 -4.035156 9.945312 -3.234375 10.75 -2.703125 C 11.5625 -2.179688 12.984375 -1.921875 15.015625 -1.921875 L 14.515625 0 L -1.171875 0 Z M -0.671875 -1.796875 "/></g></g></g><g fill="#000000" fill-opacity="1"><g transform="translate(222.114341, 208.740176)"><g><path d="M 22.625 -34.953125 C 24.539062 -34.953125 26.265625 -34.625 27.796875 -33.96875 C 29.335938 -33.3125 30.65625 -32.378906 31.75 -31.171875 C 32.84375 -29.960938 33.679688 -28.5 34.265625 -26.78125 C 34.847656 -25.0625 35.140625 -23.140625 35.140625 -21.015625 C 35.140625 -18.148438 34.625 -15.414062 33.59375 -12.8125 C 32.5625 -10.21875 31.160156 -7.929688 29.390625 -5.953125 C 27.628906 -3.984375 25.59375 -2.421875 23.28125 -1.265625 C 20.96875 -0.117188 18.523438 0.453125 15.953125 0.453125 C 14.035156 0.453125 12.300781 0.117188 10.75 -0.546875 C 9.195312 -1.222656 7.867188 -2.175781 6.765625 -3.40625 C 5.660156 -4.632812 4.804688 -6.101562 4.203125 -7.8125 C 3.609375 -9.53125 3.3125 -11.453125 3.3125 -13.578125 C 3.3125 -16.441406 3.832031 -19.164062 4.875 -21.75 C 5.925781 -24.332031 7.332031 -26.601562 9.09375 -28.5625 C 10.851562 -30.519531 12.90625 -32.070312 15.25 -33.21875 C 17.601562 -34.375 20.0625 -34.953125 22.625 -34.953125 Z M 22.625 -32.625 C 20.6875 -32.625 18.875 -32.128906 17.1875 -31.140625 C 15.5 -30.160156 14.023438 -28.800781 12.765625 -27.0625 C 11.515625 -25.332031 10.53125 -23.300781 9.8125 -20.96875 C 9.09375 -18.644531 8.734375 -16.132812 8.734375 -13.4375 C 8.734375 -9.613281 9.398438 -6.742188 10.734375 -4.828125 C 12.066406 -2.921875 14.015625 -1.96875 16.578125 -1.96875 C 18.460938 -1.96875 20.203125 -2.472656 21.796875 -3.484375 C 23.398438 -4.503906 24.789062 -5.910156 25.96875 -7.703125 C 27.144531 -9.492188 28.0625 -11.628906 28.71875 -14.109375 C 29.375 -16.585938 29.703125 -19.296875 29.703125 -22.234375 C 29.703125 -25.816406 29.128906 -28.441406 27.984375 -30.109375 C 26.835938 -31.785156 25.050781 -32.625 22.625 -32.625 Z M 22.625 -32.625 "/></g></g></g><g fill="#000000" fill-opacity="1"><g transform="translate(267.604037, 208.740176)"><g><path d="M -0.625 -1.796875 C 0.351562 -1.796875 1.164062 -1.867188 1.8125 -2.015625 C 2.457031 -2.160156 2.992188 -2.4375 3.421875 -2.84375 C 3.859375 -3.25 4.222656 -3.785156 4.515625 -4.453125 C 4.816406 -5.128906 5.101562 -6.003906 5.375 -7.078125 L 10.4375 -26.890625 C 10.644531 -27.722656 10.804688 -28.4375 10.921875 -29.03125 C 11.046875 -29.632812 11.109375 -30.144531 11.109375 -30.5625 C 11.109375 -31.363281 10.847656 -31.921875 10.328125 -32.234375 C 9.804688 -32.554688 8.914062 -32.71875 7.65625 -32.71875 L 6.671875 -32.71875 L 7.171875 -34.5 L 21.734375 -34.5 L 21.234375 -32.71875 C 20.253906 -32.71875 19.4375 -32.617188 18.78125 -32.421875 C 18.125 -32.222656 17.554688 -31.851562 17.078125 -31.3125 C 16.597656 -30.78125 16.171875 -30.035156 15.796875 -29.078125 C 15.421875 -28.128906 15.039062 -26.890625 14.65625 -25.359375 L 10 -7.625 C 9.726562 -6.632812 9.59375 -5.796875 9.59375 -5.109375 C 9.59375 -4.035156 9.957031 -3.234375 10.6875 -2.703125 C 11.414062 -2.179688 12.722656 -1.921875 14.609375 -1.921875 C 16.398438 -1.921875 17.945312 -2.070312 19.25 -2.375 C 20.550781 -2.675781 21.691406 -3.160156 22.671875 -3.828125 C 23.660156 -4.503906 24.519531 -5.367188 25.25 -6.421875 C 25.976562 -7.484375 26.660156 -8.796875 27.296875 -10.359375 L 29.390625 -10.359375 L 25.453125 0 L -1.125 0 Z M -0.625 -1.796875 "/></g></g></g><g fill="#000000" fill-opacity="1"><g transform="translate(307.805294, 208.740176)"><g><path d="M 10.03125 -7.53125 C 9.675781 -6.21875 9.5 -5.171875 9.5 -4.390625 C 9.5 -3.378906 9.816406 -2.691406 10.453125 -2.328125 C 11.097656 -1.972656 12.140625 -1.796875 13.578125 -1.796875 L 13.046875 0 L -1.25 0 L -0.765625 -1.796875 C 0.128906 -1.796875 0.890625 -1.863281 1.515625 -2 C 2.148438 -2.132812 2.695312 -2.394531 3.15625 -2.78125 C 3.625 -3.164062 4.019531 -3.703125 4.34375 -4.390625 C 4.675781 -5.078125 4.988281 -5.972656 5.28125 -7.078125 L 10.53125 -26.890625 C 10.976562 -28.535156 11.203125 -29.757812 11.203125 -30.5625 C 11.203125 -31.488281 10.863281 -32.078125 10.1875 -32.328125 C 9.519531 -32.585938 8.378906 -32.71875 6.765625 -32.71875 L 7.265625 -34.5 L 21.828125 -34.5 L 21.328125 -32.71875 C 20.347656 -32.71875 19.523438 -32.617188 18.859375 -32.421875 C 18.203125 -32.222656 17.632812 -31.851562 17.15625 -31.3125 C 16.6875 -30.78125 16.265625 -30.035156 15.890625 -29.078125 C 15.515625 -28.128906 15.132812 -26.890625 14.75 -25.359375 Z M 10.03125 -7.53125 "/></g></g></g><g fill="#000000" fill-opacity="1"><g transform="translate(335.368021, 208.740176)"><g><path d="M 22.625 -34.953125 C 24.539062 -34.953125 26.265625 -34.625 27.796875 -33.96875 C 29.335938 -33.3125 30.65625 -32.378906 31.75 -31.171875 C 32.84375 -29.960938 33.679688 -28.5 34.265625 -26.78125 C 34.847656 -25.0625 35.140625 -23.140625 35.140625 -21.015625 C 35.140625 -18.148438 34.625 -15.414062 33.59375 -12.8125 C 32.5625 -10.21875 31.160156 -7.929688 29.390625 -5.953125 C 27.628906 -3.984375 25.59375 -2.421875 23.28125 -1.265625 C 20.96875 -0.117188 18.523438 0.453125 15.953125 0.453125 C 14.035156 0.453125 12.300781 0.117188 10.75 -0.546875 C 9.195312 -1.222656 7.867188 -2.175781 6.765625 -3.40625 C 5.660156 -4.632812 4.804688 -6.101562 4.203125 -7.8125 C 3.609375 -9.53125 3.3125 -11.453125 3.3125 -13.578125 C 3.3125 -16.441406 3.832031 -19.164062 4.875 -21.75 C 5.925781 -24.332031 7.332031 -26.601562 9.09375 -28.5625 C 10.851562 -30.519531 12.90625 -32.070312 15.25 -33.21875 C 17.601562 -34.375 20.0625 -34.953125 22.625 -34.953125 Z M 22.625 -32.625 C 20.6875 -32.625 18.875 -32.128906 17.1875 -31.140625 C 15.5 -30.160156 14.023438 -28.800781 12.765625 -27.0625 C 11.515625 -25.332031 10.53125 -23.300781 9.8125 -20.96875 C 9.09375 -18.644531 8.734375 -16.132812 8.734375 -13.4375 C 8.734375 -9.613281 9.398438 -6.742188 10.734375 -4.828125 C 12.066406 -2.921875 14.015625 -1.96875 16.578125 -1.96875 C 18.460938 -1.96875 20.203125 -2.472656 21.796875 -3.484375 C 23.398438 -4.503906 24.789062 -5.910156 25.96875 -7.703125 C 27.144531 -9.492188 28.0625 -11.628906 28.71875 -14.109375 C 29.375 -16.585938 29.703125 -19.296875 29.703125 -22.234375 C 29.703125 -25.816406 29.128906 -28.441406 27.984375 -30.109375 C 26.835938 -31.785156 25.050781 -32.625 22.625 -32.625 Z M 22.625 -32.625 "/></g></g></g><g fill="#000000" fill-opacity="1"><g transform="translate(127.279579, 149.055019)"><g><path d="M 14.78125 -2.671875 L 17.546875 -10.359375 C 17.710938 -10.828125 17.828125 -11.195312 17.890625 -11.46875 C 17.960938 -11.738281 18 -11.972656 18 -12.171875 C 18 -12.484375 17.898438 -12.691406 17.703125 -12.796875 C 17.515625 -12.910156 17.171875 -12.96875 16.671875 -12.96875 L 16.671875 -13.640625 L 20.984375 -13.640625 L 20.984375 -12.96875 C 20.429688 -12.96875 20.015625 -12.851562 19.734375 -12.625 C 19.460938 -12.40625 19.234375 -12.039062 19.046875 -11.53125 L 14.59375 0.171875 L 13.984375 0.171875 L 10.578125 -9.90625 L 6.796875 0.171875 L 6.1875 0.171875 L 2.5 -10 C 2.28125 -10.5625 2.085938 -11.035156 1.921875 -11.421875 C 1.753906 -11.804688 1.570312 -12.109375 1.375 -12.328125 C 1.175781 -12.554688 0.953125 -12.71875 0.703125 -12.8125 C 0.460938 -12.90625 0.164062 -12.953125 -0.1875 -12.953125 L -0.1875 -13.640625 L 5.578125 -13.640625 L 5.578125 -12.953125 C 4.972656 -12.953125 4.550781 -12.898438 4.3125 -12.796875 C 4.070312 -12.691406 3.953125 -12.484375 3.953125 -12.171875 C 3.953125 -12.015625 3.972656 -11.835938 4.015625 -11.640625 C 4.066406 -11.441406 4.140625 -11.207031 4.234375 -10.9375 L 6.921875 -2.734375 L 9.109375 -8.859375 C 9.273438 -9.316406 9.4375 -9.742188 9.59375 -10.140625 C 9.75 -10.535156 9.875 -10.894531 9.96875 -11.21875 C 9.8125 -11.5625 9.660156 -11.84375 9.515625 -12.0625 C 9.378906 -12.289062 9.242188 -12.46875 9.109375 -12.59375 C 8.972656 -12.726562 8.832031 -12.820312 8.6875 -12.875 C 8.539062 -12.925781 8.382812 -12.953125 8.21875 -12.953125 L 8.21875 -13.640625 L 13.640625 -13.640625 L 13.640625 -12.953125 C 13.296875 -12.953125 13.015625 -12.9375 12.796875 -12.90625 C 12.585938 -12.882812 12.425781 -12.847656 12.3125 -12.796875 C 12.207031 -12.742188 12.132812 -12.671875 12.09375 -12.578125 C 12.050781 -12.484375 12.03125 -12.375 12.03125 -12.25 C 12.03125 -12.070312 12.0625 -11.851562 12.125 -11.59375 C 12.1875 -11.34375 12.28125 -11.019531 12.40625 -10.625 Z M 14.78125 -2.671875 "/></g></g></g><g fill="#000000" fill-opacity="1"><g transform="translate(155.957177, 149.055019)"><g><path d="M 4.609375 -3.34375 C 4.609375 -2.757812 4.628906 -2.296875 4.671875 -1.953125 C 4.722656 -1.609375 4.816406 -1.34375 4.953125 -1.15625 C 5.085938 -0.96875 5.28125 -0.84375 5.53125 -0.78125 C 5.789062 -0.71875 6.125 -0.679688 6.53125 -0.671875 L 6.53125 0 L 0.796875 0 L 0.796875 -0.671875 C 1.210938 -0.679688 1.546875 -0.71875 1.796875 -0.78125 C 2.046875 -0.851562 2.242188 -0.976562 2.390625 -1.15625 C 2.535156 -1.332031 2.628906 -1.582031 2.671875 -1.90625 C 2.722656 -2.226562 2.75 -2.664062 2.75 -3.21875 L 2.75 -10.421875 C 2.75 -10.910156 2.726562 -11.316406 2.6875 -11.640625 C 2.644531 -11.972656 2.5625 -12.234375 2.4375 -12.421875 C 2.3125 -12.609375 2.128906 -12.738281 1.890625 -12.8125 C 1.660156 -12.894531 1.351562 -12.945312 0.96875 -12.96875 L 0.96875 -13.640625 L 6.359375 -13.640625 L 6.359375 -12.96875 C 5.984375 -12.957031 5.679688 -12.910156 5.453125 -12.828125 C 5.222656 -12.742188 5.046875 -12.601562 4.921875 -12.40625 C 4.796875 -12.21875 4.710938 -11.953125 4.671875 -11.609375 C 4.628906 -11.265625 4.609375 -10.828125 4.609375 -10.296875 Z M 4.609375 -3.34375 "/></g></g></g><g fill="#000000" fill-opacity="1"><g transform="translate(171.158674, 149.055019)"><g><path d="M 12.25 0 L 0.796875 0 L 0.796875 -0.671875 C 1.210938 -0.679688 1.546875 -0.71875 1.796875 -0.78125 C 2.046875 -0.84375 2.242188 -0.941406 2.390625 -1.078125 C 2.535156 -1.222656 2.628906 -1.425781 2.671875 -1.6875 C 2.722656 -1.945312 2.75 -2.28125 2.75 -2.6875 L 2.75 -10.953125 C 2.75 -11.367188 2.726562 -11.703125 2.6875 -11.953125 C 2.644531 -12.203125 2.5625 -12.398438 2.4375 -12.546875 C 2.3125 -12.703125 2.128906 -12.804688 1.890625 -12.859375 C 1.660156 -12.910156 1.351562 -12.945312 0.96875 -12.96875 L 0.96875 -13.640625 L 6.359375 -13.640625 L 6.359375 -12.96875 C 5.984375 -12.957031 5.679688 -12.921875 5.453125 -12.859375 C 5.222656 -12.804688 5.046875 -12.703125 4.921875 -12.546875 C 4.796875 -12.390625 4.710938 -12.175781 4.671875 -11.90625 C 4.628906 -11.632812 4.609375 -11.273438 4.609375 -10.828125 L 4.609375 -3.1875 C 4.609375 -2.6875 4.65625 -2.28125 4.75 -1.96875 C 4.851562 -1.65625 5.023438 -1.414062 5.265625 -1.25 C 5.515625 -1.082031 5.835938 -0.960938 6.234375 -0.890625 C 6.640625 -0.828125 7.148438 -0.796875 7.765625 -0.796875 C 8.429688 -0.796875 8.992188 -0.832031 9.453125 -0.90625 C 9.921875 -0.988281 10.3125 -1.125 10.625 -1.3125 C 10.9375 -1.507812 11.179688 -1.78125 11.359375 -2.125 C 11.546875 -2.476562 11.707031 -2.929688 11.84375 -3.484375 L 12.515625 -3.484375 Z M 12.25 0 "/></g></g></g><g fill="#000000" fill-opacity="1"><g transform="translate(191.8852, 149.055019)"><g><path d="M 12.25 0 L 0.796875 0 L 0.796875 -0.671875 C 1.210938 -0.679688 1.546875 -0.71875 1.796875 -0.78125 C 2.046875 -0.84375 2.242188 -0.941406 2.390625 -1.078125 C 2.535156 -1.222656 2.628906 -1.425781 2.671875 -1.6875 C 2.722656 -1.945312 2.75 -2.28125 2.75 -2.6875 L 2.75 -10.953125 C 2.75 -11.367188 2.726562 -11.703125 2.6875 -11.953125 C 2.644531 -12.203125 2.5625 -12.398438 2.4375 -12.546875 C 2.3125 -12.703125 2.128906 -12.804688 1.890625 -12.859375 C 1.660156 -12.910156 1.351562 -12.945312 0.96875 -12.96875 L 0.96875 -13.640625 L 6.359375 -13.640625 L 6.359375 -12.96875 C 5.984375 -12.957031 5.679688 -12.921875 5.453125 -12.859375 C 5.222656 -12.804688 5.046875 -12.703125 4.921875 -12.546875 C 4.796875 -12.390625 4.710938 -12.175781 4.671875 -11.90625 C 4.628906 -11.632812 4.609375 -11.273438 4.609375 -10.828125 L 4.609375 -3.1875 C 4.609375 -2.6875 4.65625 -2.28125 4.75 -1.96875 C 4.851562 -1.65625 5.023438 -1.414062 5.265625 -1.25 C 5.515625 -1.082031 5.835938 -0.960938 6.234375 -0.890625 C 6.640625 -0.828125 7.148438 -0.796875 7.765625 -0.796875 C 8.429688 -0.796875 8.992188 -0.832031 9.453125 -0.90625 C 9.921875 -0.988281 10.3125 -1.125 10.625 -1.3125 C 10.9375 -1.507812 11.179688 -1.78125 11.359375 -2.125 C 11.546875 -2.476562 11.707031 -2.929688 11.84375 -3.484375 L 12.515625 -3.484375 Z M 12.25 0 "/></g></g></g><g fill="#000000" fill-opacity="1"><g transform="translate(212.61173, 149.055019)"><g><path d="M 8.640625 -4.9375 L 3.921875 -4.9375 C 3.710938 -4.457031 3.535156 -4.03125 3.390625 -3.65625 C 3.253906 -3.28125 3.140625 -2.957031 3.046875 -2.6875 C 2.960938 -2.414062 2.898438 -2.1875 2.859375 -2 C 2.828125 -1.8125 2.8125 -1.660156 2.8125 -1.546875 C 2.8125 -1.210938 2.914062 -0.984375 3.125 -0.859375 C 3.34375 -0.734375 3.703125 -0.671875 4.203125 -0.671875 L 4.203125 0 L -0.109375 0 L -0.109375 -0.671875 C 0.160156 -0.703125 0.394531 -0.75 0.59375 -0.8125 C 0.789062 -0.875 0.960938 -0.957031 1.109375 -1.0625 C 1.253906 -1.164062 1.382812 -1.300781 1.5 -1.46875 C 1.613281 -1.644531 1.722656 -1.859375 1.828125 -2.109375 L 6.4375 -13.640625 L 7.1875 -13.640625 L 11.21875 -3.65625 C 11.488281 -2.988281 11.722656 -2.457031 11.921875 -2.0625 C 12.117188 -1.664062 12.3125 -1.367188 12.5 -1.171875 C 12.695312 -0.972656 12.90625 -0.84375 13.125 -0.78125 C 13.34375 -0.71875 13.601562 -0.6875 13.90625 -0.6875 L 13.90625 0 L 8.140625 0 L 8.140625 -0.6875 C 8.765625 -0.6875 9.191406 -0.742188 9.421875 -0.859375 C 9.660156 -0.984375 9.78125 -1.179688 9.78125 -1.453125 C 9.78125 -1.566406 9.773438 -1.675781 9.765625 -1.78125 C 9.753906 -1.882812 9.734375 -1.992188 9.703125 -2.109375 C 9.671875 -2.222656 9.628906 -2.351562 9.578125 -2.5 C 9.523438 -2.65625 9.457031 -2.832031 9.375 -3.03125 Z M 4.265625 -5.828125 L 8.3125 -5.828125 L 6.34375 -11.0625 Z M 4.265625 -5.828125 "/></g></g></g><g fill="#000000" fill-opacity="1"><g transform="translate(234.13514, 149.055019)"><g><path d="M 1.140625 -10.390625 C 1.679688 -10.796875 2.066406 -11.1875 2.296875 -11.5625 C 2.523438 -11.9375 2.640625 -12.347656 2.640625 -12.796875 C 2.484375 -12.703125 2.304688 -12.65625 2.109375 -12.65625 C 1.835938 -12.65625 1.613281 -12.742188 1.4375 -12.921875 C 1.269531 -13.109375 1.1875 -13.34375 1.1875 -13.625 C 1.1875 -13.945312 1.296875 -14.207031 1.515625 -14.40625 C 1.734375 -14.601562 2.023438 -14.703125 2.390625 -14.703125 C 3.234375 -14.703125 3.65625 -14.148438 3.65625 -13.046875 C 3.65625 -12.734375 3.617188 -12.453125 3.546875 -12.203125 C 3.472656 -11.960938 3.351562 -11.71875 3.1875 -11.46875 C 3.03125 -11.226562 2.816406 -10.976562 2.546875 -10.71875 C 2.273438 -10.46875 1.941406 -10.195312 1.546875 -9.90625 Z M 1.140625 -10.390625 "/></g></g></g><g fill="#000000" fill-opacity="1"><g transform="translate(246.485583, 149.055019)"><g><path d="M 1.03125 -4.15625 L 1.6875 -4.15625 C 1.769531 -3.625 1.925781 -3.144531 2.15625 -2.71875 C 2.382812 -2.300781 2.671875 -1.941406 3.015625 -1.640625 C 3.367188 -1.347656 3.769531 -1.117188 4.21875 -0.953125 C 4.675781 -0.796875 5.171875 -0.71875 5.703125 -0.71875 C 6.578125 -0.71875 7.269531 -0.925781 7.78125 -1.34375 C 8.289062 -1.757812 8.546875 -2.320312 8.546875 -3.03125 C 8.546875 -3.320312 8.492188 -3.59375 8.390625 -3.84375 C 8.285156 -4.09375 8.113281 -4.332031 7.875 -4.5625 C 7.644531 -4.789062 7.332031 -5.015625 6.9375 -5.234375 C 6.539062 -5.460938 6.039062 -5.707031 5.4375 -5.96875 C 4.707031 -6.289062 4.09375 -6.597656 3.59375 -6.890625 C 3.101562 -7.179688 2.707031 -7.488281 2.40625 -7.8125 C 2.113281 -8.132812 1.90625 -8.472656 1.78125 -8.828125 C 1.65625 -9.191406 1.59375 -9.601562 1.59375 -10.0625 C 1.59375 -10.601562 1.6875 -11.101562 1.875 -11.5625 C 2.070312 -12.03125 2.347656 -12.429688 2.703125 -12.765625 C 3.066406 -13.097656 3.488281 -13.359375 3.96875 -13.546875 C 4.457031 -13.734375 4.988281 -13.828125 5.5625 -13.828125 C 6.082031 -13.828125 6.566406 -13.742188 7.015625 -13.578125 C 7.460938 -13.410156 7.914062 -13.144531 8.375 -12.78125 L 8.84375 -13.578125 L 9.25 -13.578125 L 9.4375 -10.046875 L 8.78125 -10.046875 C 8.5 -11.015625 8.085938 -11.734375 7.546875 -12.203125 C 7.015625 -12.679688 6.367188 -12.921875 5.609375 -12.921875 C 4.890625 -12.921875 4.316406 -12.742188 3.890625 -12.390625 C 3.472656 -12.035156 3.265625 -11.554688 3.265625 -10.953125 C 3.265625 -10.671875 3.3125 -10.410156 3.40625 -10.171875 C 3.5 -9.941406 3.648438 -9.722656 3.859375 -9.515625 C 4.078125 -9.316406 4.351562 -9.113281 4.6875 -8.90625 C 5.03125 -8.695312 5.457031 -8.476562 5.96875 -8.25 C 6.84375 -7.863281 7.566406 -7.5 8.140625 -7.15625 C 8.722656 -6.820312 9.1875 -6.488281 9.53125 -6.15625 C 9.875 -5.820312 10.113281 -5.46875 10.25 -5.09375 C 10.394531 -4.71875 10.46875 -4.300781 10.46875 -3.84375 C 10.46875 -3.25 10.347656 -2.703125 10.109375 -2.203125 C 9.878906 -1.710938 9.550781 -1.289062 9.125 -0.9375 C 8.695312 -0.582031 8.1875 -0.304688 7.59375 -0.109375 C 7.007812 0.078125 6.363281 0.171875 5.65625 0.171875 C 4.976562 0.171875 4.367188 0.078125 3.828125 -0.109375 C 3.296875 -0.296875 2.753906 -0.613281 2.203125 -1.0625 L 1.703125 -0.1875 L 1.296875 -0.1875 Z M 1.03125 -4.15625 "/></g></g></g></svg>