<?xml version="1.0" standalone="no"?>
<!DOCTYPE svg PUBLIC "-//W3C//DTD SVG 20010904//EN"
 "http://www.w3.org/TR/2001/REC-SVG-20010904/DTD/svg10.dtd">
<svg version="1.0" xmlns="http://www.w3.org/2000/svg"
 width="700.000000pt" height="700.000000pt" viewBox="0 0 700.000000 700.000000"
 preserveAspectRatio="xMidYMid meet">
<metadata>
Created by potrace 1.14, written by Peter Selinger 2001-2017
</metadata>
<g transform="translate(0.000000,700.000000) scale(0.100000,-0.100000)"
fill="#000000" stroke="none">
<path d="M1625 5750 c-12 -4 -26 -14 -32 -21 -15 -18 -63 -145 -122 -321 -27
-79 -89 -258 -139 -399 -50 -141 -96 -285 -103 -319 -11 -58 -11 -64 6 -76 35
-26 79 -17 128 26 56 50 284 299 429 470 58 69 119 137 134 152 l29 27 73
-317 c75 -327 79 -352 62 -352 -5 0 -10 -9 -10 -20 0 -23 -44 -123 -72 -162
-11 -16 -17 -28 -14 -28 8 0 -46 -84 -56 -88 -5 -2 -8 -8 -8 -12 0 -5 -10 -20
-22 -34 -42 -44 -53 -61 -50 -70 2 -5 -6 -18 -17 -30 -11 -11 -29 -42 -40 -68
-11 -26 -36 -71 -55 -100 -20 -29 -36 -60 -36 -70 0 -9 -13 -36 -29 -60 -59
-89 -85 -133 -83 -140 1 -5 -2 -8 -6 -8 -5 0 -22 -25 -37 -55 -16 -30 -33 -55
-38 -55 -4 0 -6 -4 -3 -9 3 -4 -8 -29 -24 -55 -17 -26 -30 -51 -30 -56 0 -6
-4 -10 -9 -10 -5 0 -13 -10 -17 -22 -3 -12 -10 -26 -15 -32 -21 -25 -61 -91
-86 -139 -14 -29 -29 -54 -33 -57 -4 -3 -18 -25 -31 -50 -12 -25 -27 -51 -33
-58 -12 -17 -15 -73 -3 -89 5 -7 4 -20 -2 -30 -8 -15 6 -39 75 -130 128 -171
706 -787 785 -837 18 -11 55 -18 119 -21 l91 -4 97 -65 c147 -99 291 -217 457
-376 83 -78 164 -151 180 -161 40 -25 117 -25 169 1 23 11 99 63 170 116 174
129 283 204 451 307 l140 86 125 -10 c69 -6 135 -11 148 -11 12 0 22 -4 22 -8
0 -4 17 -8 38 -8 63 -1 156 -13 167 -22 12 -10 19 -11 125 -13 41 -1 81 -6 87
-10 7 -4 20 -4 30 1 11 7 30 5 56 -4 41 -15 77 -11 77 8 0 5 -54 111 -120 233
-66 123 -120 228 -120 232 0 14 59 66 125 110 l60 40 105 -8 c58 -5 175 -8
261 -6 128 2 161 6 183 20 14 10 26 24 26 33 0 8 -45 58 -100 112 -55 53 -100
102 -100 107 0 6 18 22 41 35 23 14 55 36 73 51 100 81 527 351 594 375 41 15
104 63 100 76 -8 23 -140 62 -348 104 -180 35 -219 43 -280 54 -72 12 -252 44
-345 60 -66 12 -66 12 -205 30 -87 11 -127 20 -88 20 9 0 51 25 94 57 44 31
122 83 174 116 52 33 120 81 150 106 30 26 114 91 186 144 72 53 137 103 143
111 13 16 -1 22 -114 46 -27 6 -84 22 -125 36 -41 14 -118 30 -170 35 -52 5
-134 21 -182 35 -48 14 -124 29 -170 34 -102 10 -269 52 -346 86 -31 14 -102
36 -157 49 -55 13 -134 36 -175 50 -102 35 -326 87 -375 88 -77 0 -176 -67
-383 -262 -67 -64 -153 -136 -190 -161 -107 -71 -183 -129 -237 -180 -81 -76
-246 -212 -251 -207 -3 2 8 58 25 123 16 66 41 200 55 299 24 164 80 417 166
746 24 90 31 136 26 162 -10 55 -72 140 -223 303 -189 204 -297 326 -318 358
-36 54 -49 56 -367 55 -161 0 -302 -4 -313 -9z m549 -36 c12 -4 -10 -35 -83
-119 -55 -62 -118 -141 -141 -175 -23 -34 -79 -101 -124 -148 -44 -48 -112
-125 -151 -172 -84 -103 -337 -382 -341 -377 -5 5 158 479 186 542 12 28 33
88 46 135 27 93 100 288 116 307 5 7 28 14 51 16 55 6 422 -2 441 -9z m237
-195 c74 -82 136 -154 137 -160 2 -5 -3 -9 -12 -9 -9 0 -17 -6 -18 -12 0 -7
-2 -17 -3 -23 -2 -5 -3 -15 -4 -22 0 -6 -15 -27 -31 -45 -50 -54 -140 -204
-140 -231 0 -14 -4 -28 -9 -32 -6 -3 -20 -26 -32 -50 -12 -25 -26 -45 -31 -45
-4 0 -8 -5 -8 -11 0 -15 -70 -129 -79 -129 -7 0 -110 430 -135 568 l-13 73 30
42 c43 60 198 237 207 237 4 0 67 -68 141 -151z m238 -259 c80 -91 121 -158
121 -194 0 -17 -33 -164 -74 -326 -81 -323 -107 -444 -131 -624 -9 -65 -33
-189 -54 -275 -21 -86 -51 -226 -66 -311 -14 -85 -42 -228 -60 -317 -19 -90
-46 -232 -60 -315 -37 -215 -96 -435 -186 -682 l-32 -88 -99 98 c-158 158
-498 528 -606 662 -55 68 -102 136 -105 152 -8 36 4 76 35 126 14 21 27 44 29
49 3 9 126 198 178 275 10 14 20 32 24 40 4 8 27 47 52 85 43 67 104 177 106
192 1 5 10 14 20 21 11 7 19 22 19 33 0 10 5 19 11 19 5 0 7 5 4 11 -4 5 3 18
14 28 12 10 21 25 21 34 0 9 8 22 18 29 24 17 55 82 56 119 1 16 4 29 7 29 4
0 9 10 13 23 3 13 23 44 44 68 58 67 96 127 157 247 37 72 63 112 75 115 14 4
20 14 20 34 0 17 11 40 29 59 38 41 101 139 101 158 0 8 4 16 9 18 5 2 11 12
13 23 1 11 11 26 21 33 9 7 17 22 17 32 0 10 5 22 10 25 6 4 8 11 5 16 -4 5 1
9 9 9 9 0 15 3 14 8 -3 14 22 64 52 100 16 21 32 52 36 69 3 17 12 34 20 37 8
3 14 17 14 31 0 14 5 25 10 25 6 0 10 11 10 23 0 24 7 37 20 37 4 0 30 -27 59
-60z m1994 -1818 c5 -2 37 -6 70 -8 68 -3 116 -9 192 -24 28 -5 73 -11 100
-14 28 -3 111 -14 185 -26 74 -11 167 -25 205 -30 73 -10 86 -12 170 -30 28
-6 64 -13 80 -15 17 -3 37 -8 45 -12 17 -7 24 -9 90 -21 l45 -9 -28 -11 c-16
-7 -31 -12 -35 -12 -4 0 -54 -30 -112 -65 -58 -36 -118 -73 -133 -83 -32 -19
-147 -94 -247 -162 -36 -24 -80 -56 -98 -72 -18 -15 -38 -28 -43 -28 -10 0
-84 -51 -163 -111 -15 -12 -64 -44 -109 -71 -44 -27 -103 -68 -131 -92 -59
-50 -166 -126 -177 -126 -4 0 -51 84 -103 188 -52 103 -144 274 -205 381 -61
107 -111 198 -111 202 0 16 131 101 221 143 52 24 114 59 139 79 38 29 53 35
95 34 28 0 54 -2 58 -5z m-1898 -203 c65 -7 164 -9 240 -6 72 4 245 1 385 -5
140 -6 296 -11 345 -12 50 -1 134 -2 187 -4 l98 -2 29 -59 c17 -32 66 -120
110 -195 44 -75 128 -229 185 -343 58 -115 164 -318 236 -452 71 -134 128
-246 126 -248 -4 -4 -104 8 -226 27 -30 5 -108 16 -172 24 -64 8 -127 18 -140
21 -28 6 -418 35 -538 40 -77 3 -216 13 -295 20 -16 2 -84 3 -150 4 -66 0
-131 1 -145 2 -14 2 -62 3 -107 3 -45 0 -80 3 -78 7 3 3 -34 5 -80 4 -47 -2
-88 1 -91 6 -3 6 -24 10 -47 10 -205 1 -417 6 -421 10 -2 2 25 90 60 194 78
234 118 389 144 554 18 110 62 334 76 383 6 20 74 38 124 33 19 -2 85 -9 145
-16z m-65 -1256 c47 -5 106 -7 133 -6 111 6 277 4 289 -3 3 -2 57 -6 120 -9
62 -3 147 -7 188 -10 41 -2 136 -6 210 -9 74 -2 137 -5 140 -6 3 -1 25 -1 49
0 25 1 41 -2 37 -8 -3 -5 -38 -29 -78 -53 -134 -78 -327 -207 -445 -297 -146
-110 -178 -132 -191 -132 -5 0 -77 64 -158 141 -153 146 -287 258 -409 343
-98 69 -98 69 -30 62 33 -3 98 -9 145 -13z"/>
</g>
</svg>
